<svg xmlns="http://www.w3.org/2000/svg" width="1800" height="1330" viewBox="0 0 1800 1330">
  <defs>
    <style>
      text { font-family: "Apple SD Gothic Neo", "Noto Sans KR", sans-serif; fill: #172033; }
      .title { font-size: 46px; font-weight: 800; }
      .sub { font-size: 20px; fill: #657087; }
      .school { font-size: 23px; font-weight: 800; }
      .tick { font-size: 16px; fill: #687287; }
      .bartext { font-size: 16px; font-weight: 800; fill: #ffffff; }
      .outside { font-size: 16px; font-weight: 800; }
      .small { font-size: 17px; fill: #5d687c; }
    </style>
    <filter id="shadow" x="-10%" y="-20%" width="120%" height="150%">
      <feDropShadow dx="0" dy="5" stdDeviation="9" flood-color="#22314d" flood-opacity="0.09"/>
    </filter>
  </defs>

  <rect width="1800" height="1330" fill="#f3f6fb"/>
  <rect x="38" y="32" width="1724" height="1265" rx="30" fill="#ffffff" filter="url(#shadow)"/>

  <!-- Header -->
  <text x="78" y="99" class="title">2027 연기과 입시 일정 겹침 지도</text>
  <text x="78" y="137" class="sub">같은 세로선에 놓인 막대가 같은 시기에 진행되는 시험입니다</text>
  <circle cx="1260" cy="91" r="8" fill="#e65a5a"/><text x="1278" y="98" class="small">1차·1단계</text>
  <circle cx="1410" cy="91" r="8" fill="#7a263d"/><text x="1428" y="98" class="small">2차·2단계</text>
  <rect x="1560" y="70" width="154" height="42" rx="12" fill="#edf8f1" stroke="#a9dab8"/>
  <text x="1637" y="97" text-anchor="middle" font-size="17" font-weight="800" fill="#287846">지원 9교 확정</text>

  <!-- Personal first exam, separated from compressed axis -->
  <rect x="78" y="166" width="1636" height="82" rx="18" fill="#fff0ed" stroke="#f0aaa1" stroke-width="2"/>
  <circle cx="120" cy="207" r="19" fill="#e65a5a"/>
  <text x="157" y="199" font-size="20" font-weight="800" fill="#9d332f">별도 표시 · 한예종 1차</text>
  <text x="157" y="229" font-size="25" font-weight="800" fill="#9d332f">08/19 · 대기실 입실 마감 15:30</text>
  <text x="1680" y="214" text-anchor="end" font-size="18" font-weight="700" fill="#9d332f">아래 축은 시험 밀집 구간만 확대</text>

  <!-- Axis background -->
  <rect x="300" y="286" width="1400" height="802" rx="16" fill="#f8f9fc" stroke="#d8deea"/>
  <rect x="300" y="286" width="460" height="802" fill="#f5f8ff"/>
  <rect x="760" y="286" width="911" height="802" fill="#fbf7ff"/>
  <rect x="1671" y="286" width="29" height="802" fill="#eff9f5"/>

  <!-- Overlap highlight zones -->
  <rect x="406" y="374" width="144" height="670" fill="#ffd978" opacity="0.16"/>
  <rect x="809" y="374" width="86" height="670" fill="#f6a37f" opacity="0.20"/>
  <rect x="1240" y="374" width="58" height="670" fill="#ffd978" opacity="0.16"/>
  <rect x="1355" y="374" width="144" height="670" fill="#f6a37f" opacity="0.20"/>
  <rect x="1441" y="374" width="58" height="670" fill="#e7584c" opacity="0.17"/>
  <rect x="1643" y="374" width="28" height="670" fill="#ffd978" opacity="0.18"/>

  <!-- Month headers -->
  <text x="530" y="316" text-anchor="middle" font-size="21" font-weight="800">9월</text>
  <text x="1215" y="316" text-anchor="middle" font-size="21" font-weight="800">10월</text>
  <text x="1686" y="316" text-anchor="middle" font-size="21" font-weight="800">11월</text>

  <!-- Weekly ticks -->
  <g stroke="#d6dce7" stroke-width="1.5">
    <line x1="320" y1="328" x2="320" y2="1088"/>
    <line x1="521" y1="328" x2="521" y2="1088"/>
    <line x1="723" y1="328" x2="723" y2="1088"/>
    <line x1="924" y1="328" x2="924" y2="1088"/>
    <line x1="1125" y1="328" x2="1125" y2="1088"/>
    <line x1="1326" y1="328" x2="1326" y2="1088"/>
    <line x1="1528" y1="328" x2="1528" y2="1088"/>
    <line x1="1700" y1="328" x2="1700" y2="1088"/>
  </g>
  <text x="320" y="351" text-anchor="middle" class="tick">09/15</text>
  <text x="521" y="351" text-anchor="middle" class="tick">09/22</text>
  <text x="723" y="351" text-anchor="middle" class="tick">09/29</text>
  <text x="924" y="351" text-anchor="middle" class="tick">10/06</text>
  <text x="1125" y="351" text-anchor="middle" class="tick">10/13</text>
  <text x="1326" y="351" text-anchor="middle" class="tick">10/20</text>
  <text x="1528" y="351" text-anchor="middle" class="tick">10/27</text>
  <text x="1700" y="351" text-anchor="middle" class="tick">11/02</text>

  <!-- Simultaneous exam density -->
  <text x="78" y="410" class="school">동시 진행 수</text>
  <text x="78" y="436" class="small">숫자가 클수록 충돌 위험</text>
  <rect x="406" y="391" width="144" height="50" rx="12" fill="#f4c35a"/>
  <text x="478" y="423" text-anchor="middle" font-size="18" font-weight="800">2개 · 09/18–22</text>
  <rect x="809" y="391" width="86" height="50" rx="12" fill="#ed8847"/>
  <text x="852" y="423" text-anchor="middle" font-size="18" font-weight="800" fill="#ffffff">3개</text>
  <rect x="1240" y="391" width="58" height="50" rx="12" fill="#f4c35a"/>
  <text x="1269" y="423" text-anchor="middle" font-size="18" font-weight="800">2</text>
  <rect x="1355" y="391" width="86" height="50" rx="12" fill="#ed8847"/>
  <text x="1398" y="423" text-anchor="middle" font-size="18" font-weight="800" fill="#ffffff">3개</text>
  <rect x="1441" y="391" width="58" height="50" rx="12" fill="#d94a3d"/>
  <text x="1470" y="413" text-anchor="middle" font-size="17" font-weight="800" fill="#ffffff">5개</text>
  <text x="1470" y="434" text-anchor="middle" font-size="13" font-weight="800" fill="#ffffff">최고</text>
  <rect x="1643" y="391" width="28" height="50" rx="10" fill="#f4c35a"/>
  <text x="1657" y="379" text-anchor="middle" font-size="14" font-weight="800">2개</text>

  <!-- Row guides and school labels -->
  <g stroke="#e1e5ed" stroke-width="1">
    <line x1="300" y1="482" x2="1700" y2="482"/>
    <line x1="300" y1="552" x2="1700" y2="552"/>
    <line x1="300" y1="622" x2="1700" y2="622"/>
    <line x1="300" y1="692" x2="1700" y2="692"/>
    <line x1="300" y1="762" x2="1700" y2="762"/>
    <line x1="300" y1="832" x2="1700" y2="832"/>
    <line x1="300" y1="902" x2="1700" y2="902"/>
    <line x1="300" y1="972" x2="1700" y2="972"/>
    <line x1="300" y1="1042" x2="1700" y2="1042"/>
  </g>
  <text x="78" y="527" class="school">한예종</text><text x="190" y="527" class="small">2차</text>
  <text x="78" y="597" class="school">가천대</text>
  <text x="78" y="667" class="school">동국대</text>
  <text x="78" y="737" class="school">세종대</text>
  <text x="78" y="807" class="school">국민대</text>
  <text x="78" y="877" class="school">중앙대</text>
  <text x="78" y="947" class="school">성균관대</text>
  <text x="78" y="1017" class="school">서울예대</text>

  <!-- Bars: red first stage, burgundy second stage -->
  <rect x="1355" y="501" width="259" height="38" rx="10" fill="#7a263d"/>
  <text x="1484" y="526" text-anchor="middle" class="bartext" style="fill:#ffffff">2차 10/21–29</text>

  <rect x="378" y="571" width="172" height="38" rx="10" fill="#e65a5a"/>
  <text x="464" y="596" text-anchor="middle" class="bartext" style="fill:#ffffff">1단계 09/17–22</text>
  <rect x="1010" y="571" width="58" height="38" rx="10" fill="#7a263d"/>
  <text x="1080" y="596" class="outside" fill="#7a263d">2단계 10/09–10</text>

  <rect x="406" y="641" width="144" height="38" rx="10" fill="#e65a5a"/>
  <text x="478" y="666" text-anchor="middle" class="bartext" style="fill:#ffffff">1단계 09/18–22</text>
  <rect x="1355" y="641" width="144" height="38" rx="10" fill="#7a263d"/>
  <text x="1427" y="666" text-anchor="middle" class="bartext" style="fill:#ffffff">2단계 10/21–25</text>

  <rect x="716" y="711" width="15" height="38" rx="7" fill="#ffffff" stroke="#e65a5a" stroke-width="4" stroke-dasharray="5 4"/>
  <text x="742" y="736" class="outside" fill="#b83d39">1단계 09/29부터</text>
  <rect x="1614" y="711" width="57" height="38" rx="10" fill="#7a263d"/>
  <text x="1510" y="736" class="outside" fill="#7a263d">2단계 10/30–31</text>

  <rect x="780" y="781" width="115" height="38" rx="10" fill="#e65a5a"/>
  <text x="837" y="806" text-anchor="middle" class="bartext" style="fill:#ffffff">1단계 10/01–04</text>
  <rect x="1441" y="781" width="58" height="38" rx="10" fill="#7a263d"/>
  <text x="1508" y="806" class="outside" fill="#7a263d">2단계 10/24–25</text>

  <rect x="780" y="851" width="201" height="38" rx="10" fill="#e65a5a"/>
  <text x="880" y="876" text-anchor="middle" class="bartext" style="fill:#ffffff">1단계 10/01–07</text>
  <rect x="1441" y="851" width="58" height="38" rx="10" fill="#7a263d"/>
  <text x="1508" y="876" class="outside" fill="#7a263d">2단계 10/24–25</text>

  <rect x="809" y="921" width="115" height="38" rx="10" fill="#e65a5a"/>
  <text x="866" y="946" text-anchor="middle" class="bartext" style="fill:#ffffff">1단계 10/02–05</text>
  <rect x="1240" y="921" width="58" height="38" rx="10" fill="#7a263d"/>
  <text x="1135" y="946" class="outside" fill="#7a263d">2단계 10/17–18</text>

  <rect x="1240" y="991" width="259" height="38" rx="10" fill="#e65a5a"/>
  <text x="1369" y="1016" text-anchor="middle" class="bartext" style="fill:#ffffff">1차 10/17–25</text>
  <rect x="1643" y="991" width="57" height="38" rx="10" fill="#7a263d"/>
  <text x="1535" y="1016" class="outside" fill="#7a263d">2차 10/31–11/01</text>

  <!-- Konkuk, outside the dated axis because its date is not official -->
  <rect x="78" y="1115" width="1636" height="88" rx="18" fill="#f4f6f9" stroke="#cfd6e2" stroke-width="2"/>
  <text x="108" y="1152" class="school">건국대학교</text>
  <rect x="300" y="1131" width="210" height="42" rx="11" fill="#9aa3b3"/>
  <text x="405" y="1158" text-anchor="middle" font-size="17" font-weight="800" fill="#ffffff">1단계 · 학생부 선발</text>
  <rect x="548" y="1131" width="310" height="42" rx="11" fill="#ffffff" stroke="#7a263d" stroke-width="2" stroke-dasharray="8 5"/>
  <text x="703" y="1158" text-anchor="middle" font-size="17" font-weight="800" fill="#7a263d">2단계 · 실기일 공식 재확인</text>
  <text x="1680" y="1158" text-anchor="end" class="small">날짜 확정 후 위 축에 추가</text>

  <!-- Footer -->
  <rect x="78" y="1232" width="820" height="42" rx="12" fill="#fff4e8"/>
  <text x="488" y="1259" text-anchor="middle" font-size="18" font-weight="800" fill="#9a5300">최고 충돌 · 10/24–25 한예종2 · 동국2 · 국민2 · 중앙2 · 서울예대1</text>
  <text x="1710" y="1260" text-anchor="end" class="small">공식 모집요강 기준 · 확인 2026-08-30</text>
</svg>
